<?xml version="1.0" standalone="no"?>
<!DOCTYPE svg PUBLIC "-//W3C//DTD SVG 20010904//EN"
 "http://www.w3.org/TR/2001/REC-SVG-20010904/DTD/svg10.dtd">
<svg version="1.0" xmlns="http://www.w3.org/2000/svg"
 width="5px" height="5px" viewBox="0 0 226.000000 89.000000"
 preserveAspectRatio="xMidYMid meet">
<metadata>
Created by potrace 1.10, written by Peter Selinger 2001-2011
</metadata>
<g transform="translate(0.000000,89.000000) scale(0.100000,-0.100000)"
fill="#000000" stroke="none">
<path d="M10 611 l0 -50 68 -3 67 -3 3 -80 4 -80 17 45 c34 89 -3 150 -91 150
-42 0 -49 3 -46 18 3 15 23 18 188 23 102 3 195 9 207 13 12 5 29 3 40 -3 15
-10 14 -10 -8 -6 -46 11 -137 -32 -200 -94 -66 -65 -97 -137 -106 -243 l-6
-68 39 0 39 0 1 78 c3 153 86 281 204 317 16 4 8 -4 -20 -22 -102 -67 -157
-165 -167 -300 l-6 -73 40 0 41 0 -10 43 c-29 124 48 281 163 332 24 11 39 25
39 36 0 16 -19 17 -250 18 l-250 2 0 -50z"/>
<path d="M715 435 l0 -205 45 0 45 0 0 205 0 205 -45 0 -45 0 0 -205z"/>
<path d="M875 435 l0 -205 45 0 45 0 0 205 0 205 -45 0 -45 0 0 -205z"/>
<path d="M1146 625 c-87 -31 -136 -100 -136 -189 1 -158 141 -243 316 -191
l49 14 0 106 0 105 -82 0 -83 0 0 -40 c0 -40 0 -40 40 -40 39 0 40 -1 40 -34
0 -37 -12 -46 -61 -46 -116 0 -163 157 -67 224 29 21 97 20 127 -1 23 -16 25
-15 52 18 34 41 27 53 -44 74 -62 18 -100 18 -151 0z m154 -40 c16 -19 0 -20
-46 -3 -28 10 -39 9 -74 -7 -63 -28 -90 -70 -92 -141 -2 -73 16 -105 76 -134
54 -25 86 -25 120 1 39 31 36 96 -6 112 -30 11 -20 27 17 27 43 0 50 -14 48
-90 -2 -73 -22 -90 -110 -90 -62 0 -110 16 -139 45 -87 86 -65 234 41 281 42
19 149 18 165 -1z"/>
<path d="M483 510 c-49 -11 -83 -37 -102 -81 -45 -100 23 -205 130 -203 111 1
176 114 124 214 -27 52 -93 82 -152 70z m89 -80 l33 -29 -95 0 -95 0 33 29
c20 19 43 30 62 30 19 0 42 -11 62 -30z m-120 -71 c18 -10 54 -76 46 -85 -11
-10 -67 38 -76 65 -12 34 -5 39 30 20z m146 -19 c-9 -28 -42 -60 -60 -60 -5 0
-8 9 -8 20 0 24 42 70 64 70 12 0 13 -5 4 -30z"/>
<path d="M1892 498 c-19 -19 -22 -20 -22 -5 0 14 -9 17 -45 17 l-45 0 0 -135
0 -135 45 0 45 0 0 80 c0 89 17 120 65 120 23 0 25 4 25 40 0 35 -3 40 -23 40
-12 0 -33 -10 -45 -22z m-22 -33 c10 -13 10 -19 -5 -35 -11 -12 -19 -42 -22
-85 -4 -46 -10 -65 -19 -65 -19 0 -20 186 -1 193 22 9 34 7 47 -8z"/>
<path d="M1440 415 c0 -136 25 -185 94 -185 29 0 76 19 76 32 0 4 4 8 10 8 5
0 7 -7 4 -15 -5 -12 3 -15 40 -15 l46 0 0 135 0 135 -45 0 -45 0 0 -88 c0 -94
-8 -112 -47 -112 -33 0 -43 29 -43 119 l0 81 -45 0 -45 0 0 -95z m62 -15 c3
-54 8 -74 26 -93 41 -43 17 -66 -29 -28 -19 16 -24 30 -27 90 -2 39 -2 78 2
86 12 33 24 11 28 -55z m178 -25 c0 -76 -3 -97 -15 -101 -8 -4 -22 -1 -29 5
-13 11 -12 17 0 46 8 19 14 59 14 90 0 42 3 55 15 55 12 0 15 -17 15 -95z"/>
<path d="M2000 394 c5 -112 6 -117 33 -140 46 -40 132 -24 141 26 1 8 7 25 14
37 7 12 12 45 12 73 0 61 13 90 40 90 11 0 20 7 20 15 0 11 -11 15 -43 15
l-42 0 3 -72 c4 -90 -11 -123 -53 -123 l-30 0 -3 98 -3 97 -47 0 -47 0 5 -116z
m60 -2 c4 -55 10 -76 28 -94 12 -14 22 -27 22 -31 0 -14 -36 -6 -58 13 -20 16
-25 31 -27 82 -4 74 3 110 19 105 6 -2 13 -35 16 -75z"/>
<path d="M2180 261 c0 -18 6 -21 40 -21 29 0 40 4 40 15 0 9 -9 15 -24 15 -13
0 -31 3 -40 6 -12 4 -16 0 -16 -15z"/>
</g>
</svg>