<svg viewBox="0 0 16 16" xmlns="http://www.w3.org/2000/svg"><g fill-rule="evenodd"><path d="m16 5.78063097v-2.17936006-.23872215c0-1.24884742-1.1801795-2.26626812-2.6466002-2.30141348v.0002895.55288813.0005211.55584103.0011001.31578719c0 .81054361-.7060246 1.46991004-1.573738 1.46991004-.8677754 0-1.5738-.65936643-1.5738-1.46991004v-.3231984-.55340923-.55340923h-4.46256138v.55340923.55340923.3231984c0 .81054361-.70602458 1.46991004-1.57386196 1.46991004-.86777538 0-1.57373797-.65936643-1.57373797-1.46991004v-.31103938-.0019107-.55763594-.0005211-.55283023-.000579c-1.44217982.05703161-2.59570049 1.06513038-2.59570049 2.29921328v.23872215 2.17936006 7.67599103c0 1.4022248 1.22190363 2.5436675 2.72347681 2.5436675h10.55292239c1.5013872 0 2.7233528-1.1414427 2.7233528-2.5436675v-7.67570153zm-1.1852013 7.67599103c0 .792305-.6900912 1.4365595-1.5383995 1.4365595h-10.55261241c-.84824625 0-1.53827555-.6442545-1.53827555-1.4365595v-7.67599103h13.62928746z" fill-rule="nonzero"></path><path d="m5.2820693 7.74691127c0-.23380574-.20302747-.42322089-.45353718-.42322089h-1.58267285c-.25022318 0-.45329159.18941515-.45329159.42322089v1.47815696c0 .23411161.20306841.42360323.45329159.42360323h1.58267285c.25050971 0 .45353718-.18949162.45353718-.42360323z"></path><path d="m9.2652719 7.74691127c0-.23380574-.20308845-.42322089-.45313163-.42322089h-1.58303368c-.25024787 0-.45333631.18941515-.45333631.42322089v1.47815696c0 .23411161.20308844.42360323.45333631.42360323h1.58303368c.25004318 0 .45313163-.18949162.45313163-.42360323z"></path><path d="m13.2484745 7.74691127c0-.23380574-.2030684-.42322089-.4532916-.42322089h-1.5826728c-.2505098 0-.4535372.18941515-.4535372.42322089v1.47815696c0 .23411161.2030274.42360323.4535372.42360323h1.5826728c.2502232 0 .4532916-.18949162.4532916-.42360323z"></path><path d="m5.2820693 11.4671522c0-.2342112-.20302747-.4234921-.45353718-.4234921h-1.58267285c-.25022318 0-.45329159.1892809-.45329159.4234921v1.4780351c0 .2339818.20306841.4234539.45329159.4234539h1.58267285c.25050971 0 .45353718-.1895103.45353718-.4234539z"></path><path d="m9.2652719 11.4671522c0-.2342112-.20308845-.4234921-.45313163-.4234921h-1.58303368c-.25024787 0-.45333631.1892809-.45333631.4234921v1.4780351c0 .2339818.20308844.4234539.45333631.4234539h1.58303368c.25004318 0 .45313163-.1895103.45313163-.4234539z"></path><path d="m13.2484745 11.4671522c0-.2342112-.2030684-.4234921-.4530869-.4234921h-1.5828775c-.2505098 0-.4535372.1892809-.4535372.4234921v1.4780351c0 .2339818.2030274.4234539.4535372.4234539h1.5828775c.2500185 0 .4530869-.1895103.4530869-.4234539z"></path><path d="m3.48474093.63973829v.41774928.55340923.55340923.3231984c0 .35342226.30657636.63973829.68500752.63973829.37830716 0 .68500752-.28631603.68500752-.63973829v-.3231984-.55340923-.55340923-.41774928c.00006199-.35342226-.30663836-.63973829-.68494553-.63973829-.37849315.0002895-.68506951.28660553-.68506951.63973829z"></path><path d="m11.7798478.0002895c-.3784312 0-.6851315.28631603-.6851315.63973829v.41774928.55340923.55340923.3231984c0 .35342226.3066383.6397383.6851315.6397383s.6851935-.28631604.6851935-.6397383v-.3234879-.55340923-.55340923-.41774928c-.000558-.35313276-.3069483-.63944879-.6851935-.63944879z"></path></g></svg><svg viewBox="0 0 16 16" xmlns="http://www.w3.org/2000/svg"><g fill-rule="evenodd"><path d="m16 5.78063097v-2.17936006-.23872215c0-1.24884742-1.1801795-2.26626812-2.6466002-2.30141348v.0002895.55288813.0005211.55584103.0011001.31578719c0 .81054361-.7060246 1.46991004-1.573738 1.46991004-.8677754 0-1.5738-.65936643-1.5738-1.46991004v-.3231984-.55340923-.55340923h-4.46256138v.55340923.55340923.3231984c0 .81054361-.70602458 1.46991004-1.57386196 1.46991004-.86777538 0-1.57373797-.65936643-1.57373797-1.46991004v-.31103938-.0019107-.55763594-.0005211-.55283023-.000579c-1.44217982.05703161-2.59570049 1.06513038-2.59570049 2.29921328v.23872215 2.17936006 7.67599103c0 1.4022248 1.22190363 2.5436675 2.72347681 2.5436675h10.55292239c1.5013872 0 2.7233528-1.1414427 2.7233528-2.5436675v-7.67570153zm-1.1852013 7.67599103c0 .792305-.6900912 1.4365595-1.5383995 1.4365595h-10.55261241c-.84824625 0-1.53827555-.6442545-1.53827555-1.4365595v-7.67599103h13.62928746z" fill-rule="nonzero"></path><path d="m5.2820693 7.74691127c0-.23380574-.20302747-.42322089-.45353718-.42322089h-1.58267285c-.25022318 0-.45329159.18941515-.45329159.42322089v1.47815696c0 .23411161.20306841.42360323.45329159.42360323h1.58267285c.25050971 0 .45353718-.18949162.45353718-.42360323z"></path><path d="m9.2652719 7.74691127c0-.23380574-.20308845-.42322089-.45313163-.42322089h-1.58303368c-.25024787 0-.45333631.18941515-.45333631.42322089v1.47815696c0 .23411161.20308844.42360323.45333631.42360323h1.58303368c.25004318 0 .45313163-.18949162.45313163-.42360323z"></path><path d="m13.2484745 7.74691127c0-.23380574-.2030684-.42322089-.4532916-.42322089h-1.5826728c-.2505098 0-.4535372.18941515-.4535372.42322089v1.47815696c0 .23411161.2030274.42360323.4535372.42360323h1.5826728c.2502232 0 .4532916-.18949162.4532916-.42360323z"></path><path d="m5.2820693 11.4671522c0-.2342112-.20302747-.4234921-.45353718-.4234921h-1.58267285c-.25022318 0-.45329159.1892809-.45329159.4234921v1.4780351c0 .2339818.20306841.4234539.45329159.4234539h1.58267285c.25050971 0 .45353718-.1895103.45353718-.4234539z"></path><path d="m9.2652719 11.4671522c0-.2342112-.20308845-.4234921-.45313163-.4234921h-1.58303368c-.25024787 0-.45333631.1892809-.45333631.4234921v1.4780351c0 .2339818.20308844.4234539.45333631.4234539h1.58303368c.25004318 0 .45313163-.1895103.45313163-.4234539z"></path><path d="m13.2484745 11.4671522c0-.2342112-.2030684-.4234921-.4530869-.4234921h-1.5828775c-.2505098 0-.4535372.1892809-.4535372.4234921v1.4780351c0 .2339818.2030274.4234539.4535372.4234539h1.5828775c.2500185 0 .4530869-.1895103.4530869-.4234539z"></path><path d="m3.48474093.63973829v.41774928.55340923.55340923.3231984c0 .35342226.30657636.63973829.68500752.63973829.37830716 0 .68500752-.28631603.68500752-.63973829v-.3231984-.55340923-.55340923-.41774928c.00006199-.35342226-.30663836-.63973829-.68494553-.63973829-.37849315.0002895-.68506951.28660553-.68506951.63973829z"></path><path d="m11.7798478.0002895c-.3784312 0-.6851315.28631603-.6851315.63973829v.41774928.55340923.55340923.3231984c0 .35342226.3066383.6397383.6851315.6397383s.6851935-.28631604.6851935-.6397383v-.3234879-.55340923-.55340923-.41774928c-.000558-.35313276-.3069483-.63944879-.6851935-.63944879z"></path></g></svg>